<?xml version="1.0" encoding="UTF-8"?>
<!DOCTYPE svg PUBLIC "-//W3C//DTD SVG 1.1//EN" "http://www.w3.org/Graphics/SVG/1.1/DTD/svg11.dtd">
<!-- Creator: CorelDRAW 2019 (64-Bit) -->
<svg xmlns="http://www.w3.org/2000/svg" xml:space="preserve" width="1697.9mm" height="389.312mm" version="1.1" style="shape-rendering:geometricPrecision; text-rendering:geometricPrecision; image-rendering:optimizeQuality; fill-rule:evenodd; clip-rule:evenodd"
viewBox="0 0 291226.32 66775.17"
 xmlns:xlink="http://www.w3.org/1999/xlink">
 <defs>
  <style type="text/css">
   <![CDATA[
    .fil1 {fill:#FEFEFE}
    .fil0 {fill:#209DD8}
    .fil2 {fill:#FEFEFE;fill-rule:nonzero}
    .fil3 {fill:#209DD8;fill-rule:nonzero}
   ]]>
  </style>
 </defs>
 <g id="Layer_x0020_1">
  <metadata id="CorelCorpID_0Corel-Layer"/>
  <g id="_1677482685760">
   <path class="fil0" d="M14400.67 38745.23l6589.46 -124.54c-0.43,-0.86 -8.46,-14.79 -8.87,-15.63 1692.23,-267.26 3530.54,-701.73 5512.83,-1302.94 1981.43,-601.23 3875.06,-1414.84 5679.17,-2439.13 1804.11,-1024.7 3396.7,-2271.92 4777.33,-3741.65 1381.07,-1470.14 2339.07,-3185.16 2873.58,-5145.5 578.85,-2138.08 245.31,-3897.44 -1002.33,-5278.49 -1247.2,-1380.62 -3184.74,-2138.08 -5813.43,-2271.92 -3296.21,-133.43 -6291.81,390.12 -8986.78,1570.21 -2695.4,1180.49 -4933.55,2684.43 -6715.7,4510.49 -1781.32,1826.49 -3051.33,3808.35 -3808.35,5946.86 -751.13,2120.77 -866.82,4065.48 -347.07,5835.82l21.54 42.64c-6.33,-0.84 -9.3,-0.43 -8.87,1.27 -1603.57,-623.19 -2686.12,-1473.95 -3553.76,-2520.19 -696.65,-839.77 -1364.59,-1576.54 -1880.52,-2423.92 -784.49,-1135.74 -1542.35,-2732.13 -2087.43,-4378.76 -211.11,-767.57 -474.56,-1290.7 -679.76,-3139.99 -173.53,-1565.99 59.53,-4442.09 754.08,-6491.1 382.51,-1351.91 1026.81,-3088.05 1660.14,-4315.42 1174.59,-2076.45 2687.38,-3920.25 4540.47,-5531.4 1853.08,-1611.17 4022.41,-2925.93 6509.65,-3943.46 2485.99,-1018.39 5292.01,-1691.82 8417.23,-2021.98 3125.63,-329.75 6548.09,-251.23 10267.36,235.17l90.36 -1241.32c-4092.08,-584.75 -7854.84,-711.85 -11289.54,-381.26 -3434.69,331.02 -6538.38,1013.31 -9311.04,2045.63 -2773.1,1032.73 -5188.15,2371.14 -7245.17,4014.38 -2057.43,1644.1 -3731.92,3499.72 -5023.89,5567.71 -2485.56,3762.76 -3888.59,7105.83 -4209.47,10029.64 -237.69,2163.43 -138.06,4113.62 390.98,5781.36l-12.68 1.68c482.16,1916.85 1340.11,3640.74 2573.81,5172.1 1291.97,1603.57 2928.47,2940.3 4910.75,4008.91 1982.29,1069.04 4109.39,1715.02 6381.31,1938.38 0,0 0,0 0,0 21.54,27.01 42.64,53.62 64.59,80.22l-29.96 -73.89zm21948.7 -12836.09c222.93,-579.28 323.4,-1191.49 301.04,-1837.47 -22.38,-645.98 -178.18,-1235.81 -467.82,-1770.75 -289.63,-534.53 -724.09,-957.16 -1302.94,-1269.17 -579.28,-312.01 -1313.92,-467.81 -2205.21,-467.81 -2093.74,43.91 -4098.41,656.96 -6013.99,1837.45 -1914.72,1180.08 -3540.66,2616.88 -4877.39,4309.52 -1336.3,1693.08 -2249.96,3485.36 -2739.31,5378.99 -490.19,1892.77 -334.4,3530.11 467.39,4911.16 1782.16,-222.5 3541.52,-613.05 5278.49,-1169.1 1737.41,-556.89 3352.36,-1280.99 4844.46,-2171.85 1492.53,-890.45 2817.42,-1982.29 3975.55,-3273.84 1158.13,-1291.97 2071.37,-2784.47 2739.74,-4477.13z"/>
   <path class="fil1" d="M14386.38 38732.33l6597.06 -124.76c623.05,711.32 1323.95,1233.79 2102.54,1567.55 779.51,334.02 1503.42,579.06 2171.53,734.92 668.3,155.86 1213.97,289.63 1637.03,401.03 423.26,111.28 634.87,322.87 634.87,634.73 0,534.46 -256.18,868.69 -768.43,1002.32 -512.18,133.63 -1102.57,178.09 -1770.68,133.63 -668.16,-44.6 -1347.49,-111.4 -2037.95,-200.46 -690.53,-89.17 -1191.61,-111.54 -1503.4,-66.81 -1737.3,222.67 -3340.91,890.78 -4810.94,2004.5 -1470.04,1113.58 -2717.39,2427.64 -3741.94,3942.26 -1024.41,1514.55 -1781.69,3140.45 -2271.76,4877.82 -490.02,1737.17 -590.27,3351.99 -300.66,4844.37 289.51,1492.2 1024.43,2750.65 2204.96,3775.32 1180.55,1024.41 2884.4,1603.53 5111.72,1737.17 2004.5,44.53 3986.77,-256.12 5946.89,-902 1959.9,-645.93 3841.99,-1648.25 5646.05,-3006.88 1804.11,-1358.62 3496.9,-3095.99 5078.33,-5211.77 1581.32,-2116.04 2995.68,-4621.7 4242.9,-7517.12l935.51 467.72c-1336.41,3207.27 -2862.04,5980.27 -4577.11,8318.86 -1715.02,2338.71 -3541.43,4287.62 -5479.17,5846.62 -1937.69,1559.21 -3942.21,2728.42 -6013.72,3508.12 -2071.32,779.49 -4131.55,1191.42 -6180.71,1236.14 -3786.33,178.09 -6804.36,-245.17 -9053.91,-1269.72 -2249.53,-1024.55 -3841.99,-2371.97 -4777.55,-4042.44 -935.51,-1670.43 -1258.38,-3541.48 -968.75,-5612.8 289.42,-2071.32 1080.15,-4087.16 2371.97,-6047.08 1291.81,-1960.06 3040.26,-3708.37 5245.22,-5245.22 2205.08,-1536.98 4755.27,-2639.37 7650.87,-3307.66 -490.07,-133.56 -1046.9,-423.06 -1670.62,-868.55 -596.4,-426.01 -1131.71,-933.61 -1606.07,-1522.76l-44.06 -87.03z"/>
  </g>
  <g id="_1677482706272">
   <path class="fil2" d="M67862.42 28493.89c285.58,-770.82 585.09,-1594.61 897.43,-2471.98 312.34,-884.04 617.99,-1794.3 916.95,-2738.01 298.96,-943.73 584.53,-1894.14 863.97,-2864.08 278.88,-963.81 531.54,-1914.23 750.73,-2851.25l-1887.44 -6193.32c-132.76,-425.58 -119.36,-797.59 26.77,-1116.64 152.83,-319.03 385.41,-585.08 711.13,-797.59 325.74,-212.5 711.14,-372.03 1156.24,-478.56 451.77,-105.97 923.64,-152.83 1415.58,-152.83 425.01,0 810.97,20.09 1149.53,66.38 332.43,46.86 631.37,126.62 884.04,239.27 252.67,119.93 465.17,286.13 631.39,498.65 172.89,212.5 305.65,491.94 411.62,830.49l5589.27 17989.85c298.96,-804.28 604.61,-1674.94 930.33,-2611.96 325.74,-937.04 644.76,-1893.59 957.12,-2877.47 312.34,-990.02 611.3,-1986.73 890.18,-3003.51 286.13,-1010.1 538.23,-2000.67 751.3,-2977.3 219.19,-970.5 385.41,-1900.83 504.77,-2791.03 126.6,-890.73 186.29,-1708.4 186.29,-2445.75 0,-857.26 -53.55,-1568.41 -172.91,-2140.1 -119.36,-571.15 -252.67,-1049.69 -398.79,-1435.1 -152.83,-378.72 -285.58,-697.76 -398.8,-943.73 -119.36,-245.98 -172.91,-471.87 -172.91,-677.68 0,-272.74 66.94,-505.32 213.06,-691.61 139.45,-192.43 325.74,-345.25 544.94,-478.01 219.19,-126.6 458.48,-226.44 717.27,-279.43 259.36,-59.69 505.34,-93.15 737.92,-93.15 524.84,0 963.79,79.76 1329.13,239.29 358.63,152.83 611.28,418.87 757.42,797.59 66.38,192.98 119.93,398.79 152.83,611.3 40.17,212.5 73.07,418.87 93.15,624.68 13.38,199.67 26.77,385.41 26.77,565.01 0,172.91 0,312.34 0,418.87 0,544.92 -86.46,1288.98 -266.06,2239.4 -172.89,943.71 -412.17,2013.49 -717.82,3196.48 -305.65,1189.7 -650.91,2465.29 -1043,3827.89 -385.43,1362.03 -790.9,2738.03 -1216.48,4120.14 -418.31,1382.12 -843.88,2731.32 -1275.59,4060.45 -425.56,1322.44 -831.05,2545.05 -1216.46,3668.37 -378.72,1123.31 -717.27,2106.64 -1010.09,2957.21 -292.27,850.57 -518.17,1481.96 -670.99,1900.83 -106.53,312.34 -245.96,558.32 -418.87,737.35 -179.03,186.29 -378.72,325.74 -604.61,418.87 -225.89,99.84 -471.85,159.51 -737.9,186.29 -265.5,26.23 -544.94,39.6 -830.51,39.6 -518.15,0 -943.73,-52.98 -1276.15,-159.51 -331.86,-99.84 -591.22,-232.58 -784.19,-385.41 -199.12,-159.51 -338.57,-325.74 -431.7,-505.34 -93.15,-185.72 -159.51,-345.24 -212.51,-491.37l-3874.73 -12733.01c-431.7,1415.58 -863.95,2811.09 -1302.36,4179.81 -445.08,1369.29 -863.95,2632.06 -1256.07,3788.28 -398.79,1149.53 -750.73,2159.62 -1063.07,3023.59 -312.36,863.97 -551.63,1495.34 -717.83,1900.83 -132.76,312.34 -292.27,558.32 -478.56,737.35 -192.43,186.29 -398.79,325.74 -624.68,418.87 -225.89,99.84 -471.87,159.51 -730.66,186.29 -259.36,26.23 -525.4,39.6 -797.59,39.6 -518.71,0 -943.73,-52.98 -1276.15,-159.51 -332.43,-99.84 -591.22,-232.58 -790.9,-385.41 -192.41,-159.51 -338.55,-325.74 -431.7,-505.34 -99.83,-185.72 -172.89,-345.24 -225.89,-491.37l-6931.78 -23166.39c-132.74,-438.94 -272.19,-810.97 -418.31,-1116.62 -152.83,-305.65 -332.43,-558.32 -544.94,-750.75 -212.5,-192.98 -471.85,-339.11 -777.51,-432.25 -305.65,-86.45 -678.23,-132.76 -1123.33,-132.76 -358.63,0 -784.19,86.46 -1262.76,258.81 -478.54,179.6 -937.02,438.96 -1375.43,784.21 -431.7,339.11 -797.59,771.36 -1096.55,1282.82 -298.94,511.48 -451.77,1103.24 -451.77,1780.92 0,418.87 59.67,744.61 166.2,990.02 112.67,252.67 239.27,432.25 378.72,558.32 146.14,119.91 292.27,199.67 438.39,232.58 152.83,33.46 259.36,46.84 325.74,46.84 319.03,0 585.09,-53.55 797.59,-159.51 205.81,-113.22 392.1,-232.58 565.01,-352.51 165.66,-126.05 325.17,-239.27 477.99,-351.94 146.68,-113.22 319.03,-166.2 512.02,-166.2 159.51,0 319.03,33.46 498.63,106.53 172.34,73.07 338.57,185.74 484.68,345.25 152.83,152.83 279.44,359.18 378.72,611.3 106.53,252.65 159.51,558.3 159.51,923.64 0,518.71 -99.28,963.79 -305.65,1342.51 -199.12,378.72 -458.48,691.06 -777.51,943.73 -319.03,252.67 -677.68,445.08 -1089.86,565.01 -411.62,126.05 -817.11,186.29 -1215.9,186.29 -624.7,0 -1176.31,-113.22 -1668.25,-332.43 -485.25,-219.2 -890.18,-518.71 -1222.6,-897.43 -332.43,-372.01 -585.09,-810.42 -757.44,-1309.05 -179.6,-498.63 -266.05,-1036.86 -266.05,-1608.01 0,-1349.2 259.36,-2525.51 777.51,-3535.62 518.17,-1003.4 1209.77,-1847.28 2067.05,-2518.82 857.26,-677.68 1827.2,-1176.31 2917.06,-1508.17 1089.86,-332.43 2213.17,-498.63 3369.41,-498.63 1295.65,0 2359.29,199.12 3189.79,591.22 830.51,398.79 1508.73,910.81 2020.19,1528.8 512.02,624.7 916.95,1322.44 1216.46,2093.26 298.96,777.51 564.46,1534.94 797.04,2292.93l4864.73 15789.51zm27844.85 -2126.16c0,418.31 60.24,870.09 186.29,1355.34 126.05,485.25 298.94,977.19 538.23,1468.56 232.58,491.94 518.71,963.81 863.95,1408.89 345.82,452.35 737.92,850.59 1189.7,1203.08 445.08,345.25 943.73,624.7 1488.65,837.19 544.92,206.37 1142.85,312.34 1787.61,312.34 458.48,0 877.35,-52.98 1269.44,-159.51 385.41,-105.97 750.75,-245.98 1089.86,-425.01 331.86,-186.29 657.59,-392.1 969.93,-638.08 312.34,-239.27 624.68,-491.94 937.02,-764.13l485.25 465.18c-298.96,404.93 -677.66,843.88 -1149.53,1322.43 -465.17,478.56 -1030.17,930.35 -1695.02,1355.34 -657.59,418.89 -1435.1,770.83 -2312.45,1050.26 -884.04,278.88 -1887.45,418.87 -3016.9,418.87 -1130.02,0 -2233.26,-206.36 -3303.03,-611.85 -1069.78,-411.63 -2020.19,-1023.48 -2850.68,-1840.59 -831.05,-817.68 -1495.36,-1840.59 -1993.98,-3057.05 -504.77,-1222.6 -750.73,-2651.58 -750.73,-4286.36 0,-1176.31 146.12,-2259.46 445.08,-3249.48 298.96,-983.88 704.45,-1874.06 1215.91,-2664.96 512.02,-790.9 1109.93,-1488.65 1794.3,-2086.55 678.23,-598.47 1396.06,-1089.86 2146.79,-1488.65 757.44,-392.11 1521.56,-691.08 2312.46,-897.43 784.19,-199.12 1542.2,-298.96 2266.15,-298.96 963.81,0 1794.3,106.53 2512.13,312.34 711.14,205.81 1309.05,485.25 1780.92,837.19 471.85,352.49 824.36,757.99 1063.64,1216.46 232.58,458.48 345.25,943.73 345.25,1448.5 0,611.3 -172.91,1156.22 -524.85,1648.16 -345.8,485.25 -817.66,910.26 -1402.2,1276.15l-7689.2 4532.32zm3914.32 -3954.49c166.22,-99.29 305.65,-199.12 418.87,-298.96 112.67,-99.84 199.12,-212.5 266.06,-351.94 59.67,-133.31 112.66,-306.2 139.43,-505.32 32.91,-199.12 52.98,-451.79 52.98,-750.75 0,-319.03 -39.59,-684.92 -106.53,-1077.03 -73.05,-398.24 -192.41,-770.82 -365.32,-1122.76 -166.2,-345.8 -378.72,-638.08 -638.08,-870.66 -258.79,-239.27 -571.13,-351.94 -937.02,-351.94 -465.18,0 -863.97,139.45 -1195.83,418.32 -332.43,279.44 -605.18,638.08 -817.68,1076.47 -212.5,445.65 -385.41,943.73 -504.77,1508.73 -126.62,565.01 -219.75,1136.14 -286.13,1707.85 -59.67,571.7 -99.84,1116.62 -112.67,1641.47 -13.38,524.84 -20.07,970.48 -20.07,1335.82l4106.75 -2359.31zm20481.35 3196.5c0,-1129.47 -59.67,-2193.1 -179.03,-3183.12 -113.22,-990.02 -305.65,-1860.68 -565.01,-2611.41 -259.36,-744.61 -591.78,-1335.82 -990.02,-1768.09 -405.49,-438.39 -890.74,-650.89 -1462.44,-650.89 -438.39,0 -810.42,105.97 -1116.07,318.46 -306.2,213.06 -558.3,459.04 -751.3,731.23 -192.41,272.74 -338.55,538.23 -431.7,804.28 -86.45,272.19 -133.31,445.1 -133.31,538.23l0 5821.31c0,2831.16 239.29,4884.82 711.14,6173.8 471.87,1282.82 1169.62,1927.04 2093.81,1927.04 969.95,0 1687.78,-657.59 2139.55,-1966.64 451.79,-1309.62 684.37,-3356.02 684.37,-6134.19zm-11602.99 -17172.19c0,-378.72 -93.15,-704.44 -266.05,-983.31 -172.34,-278.89 -471.87,-418.89 -883.49,-418.89 -225.89,0 -412.18,33.48 -578.39,106.53 -159.53,73.07 -332.43,179.6 -511.48,319.05l-392.1 -465.17c298.96,-245.98 631.39,-485.25 1003.4,-731.23 372.03,-239.27 770.83,-451.77 1196.39,-631.37 431.7,-179.05 890.18,-331.88 1382.12,-445.1 491.94,-119.36 1010.09,-179.6 1555.03,-179.6 757.42,0 1362.03,113.22 1821.07,345.82 465.17,225.88 817.11,504.77 1056.38,837.18 239.27,325.74 398.8,684.37 471.87,1069.78 79.76,379.28 119.34,737.92 119.34,1056.95l0 8685.93c152.83,-140 359.2,-319.03 605.18,-532.09 245.96,-219.2 558.3,-425.01 930.33,-637.51 378.72,-206.37 830.51,-379.28 1355.34,-525.42 525.4,-139.43 1143.41,-212.5 1861.24,-212.5 830.49,0 1660.99,192.98 2492.05,571.7 830.49,385.41 1574.55,983.33 2239.38,1800.99 657.59,817.13 1196.39,1874.07 1614.72,3156.35 412.18,1282.84 624.68,2831.16 624.68,4632.17 0,1415.58 -192.43,2751.4 -577.84,4013.61 -379.27,1256.07 -950.42,2359.31 -1701.71,3296.33 -750.73,943.73 -1694.46,1687.77 -2823.92,2232.69 -1130,544.94 -2439.06,817.68 -3934.4,817.68 -1621.39,0 -2983.99,-266.05 -4093.93,-790.9 -1109.36,-524.84 -2006.8,-1229.29 -2677.77,-2120.02 -677.68,-890.18 -1162.93,-1927.06 -1455.75,-3103.37 -285.57,-1183 -431.7,-2432.36 -431.7,-3741.42l0 -17424.85zm36483.93 29692.69c518.7,0 1036.86,-93.14 1541.63,-286.13 505.32,-185.72 957.1,-498.06 1349.2,-930.33 398.8,-438.39 717.83,-1003.4 963.81,-1707.85 252.67,-697.75 372.01,-1555.03 372.01,-2565.12 0,-1089.86 -266.05,-2152.93 -804.28,-3176.42 -544.92,-1023.48 -1215.9,-2033.59 -2026.88,-3023.59 -810.42,-997.28 -1687.77,-1980.59 -2631.49,-2963.92 -937.02,-977.19 -1814.37,-1980.59 -2624.79,-2997.38 -810.99,-1016.79 -1488.67,-2067.04 -2026.9,-3156.9 -538.23,-1083.16 -804.28,-2212.62 -804.28,-3395.62 0,-1183 212.51,-2246.07 651.45,-3203.19 431.72,-950.42 1023.48,-1760.84 1767.54,-2432.37 750.73,-670.97 1614.7,-1183 2611.96,-1548.32 990.02,-365.34 2053.11,-544.92 3183.12,-544.92 1209.21,0 2279.55,126.05 3222.71,378.7 937.02,252.67 1734.61,598.47 2392.77,1036.88 657.59,431.7 1149.53,943.73 1488.65,1534.94 338.57,591.78 504.77,1216.46 504.77,1880.75 0,312.34 -39.6,631.39 -132.74,963.81 -93.15,325.72 -232.58,631.37 -432.27,903.56 -192.43,272.75 -438.39,498.63 -737.35,677.68 -298.96,186.29 -651.45,272.74 -1050.26,272.74 -477.99,0 -837.19,-146.14 -1063.07,-431.7 -225.89,-292.82 -392.11,-658.14 -505.34,-1083.72 -112.67,-425.01 -205.81,-896.87 -278.88,-1408.89 -79.76,-518.15 -205.81,-983.31 -372.03,-1415.01 -172.89,-425.58 -425.56,-790.9 -757.42,-1077.03 -339.11,-292.27 -831.07,-438.39 -1481.96,-438.39 -352.51,0 -698.31,73.07 -1043.57,232.58 -339.11,152.83 -651.45,392.1 -930.33,711.13 -279.44,319.05 -505.34,724.54 -671.54,1215.91 -172.34,491.94 -252.1,1077.03 -252.1,1748.01 0,784.21 159.51,1541.63 484.68,2279.55 325.74,744.04 751.3,1468.56 1282.84,2193.1 531.54,717.27 1136.14,1441.79 1821.07,2159.62 684.37,717.83 1375.43,1448.5 2079.86,2179.71 711.14,737.92 1402.2,1488.65 2086.57,2259.46 678.23,770.83 1289.53,1575.11 1821.07,2405.6 531.54,831.07 957.1,1701.16 1282.27,2605.29 325.74,910.26 485.25,1867.37 485.25,2864.08 0,1468.56 -278.88,2778.18 -843.88,3921.02 -565.01,1149.53 -1329.13,2120.04 -2299.07,2904.23 -963.81,784.21 -2100.52,1382.12 -3396.19,1800.99 -1295.65,411.63 -2678.34,624.7 -4146.9,624.7 -1322.44,0 -2492.06,-166.22 -3515.55,-498.63 -1016.78,-332.43 -1874.06,-770.83 -2578.49,-1315.76 -697.75,-544.92 -1229.29,-1162.91 -1587.94,-1860.68 -352.49,-691.06 -532.09,-1408.89 -532.09,-2146.79 0,-312.34 46.86,-644.76 146.68,-1003.4 92.59,-358.65 239.29,-684.37 425.01,-983.33 193,-299.51 425.58,-551.63 711.14,-751.3 285.57,-199.12 617.99,-298.96 996.71,-298.96 385.41,0 697.75,93.15 943.73,292.27 239.27,192.98 432.25,452.34 571.7,777.51 146.14,325.74 259.36,691.62 351.94,1109.93 86.45,412.18 186.29,837.19 292.82,1262.77 99.28,431.7 232.58,850.57 385.41,1269.44 159.51,411.62 372.03,784.21 644.22,1109.93 272.74,325.17 624.68,584.53 1050.24,777.52 431.7,192.41 970.5,292.25 1614.72,292.25zm13204.86 -12792.68c0,-1701.16 245.96,-3189.81 737.35,-4465.96 491.94,-1282.82 1150.1,-2345.91 1973.9,-3203.19 823.8,-857.26 1780.92,-1502.03 2877.46,-1927.04 1089.86,-432.27 2226.57,-644.76 3422.39,-644.76 1196.39,0 2339.22,199.12 3429.08,591.22 1089.85,398.8 2046.97,1003.96 2871.33,1821.07 823.8,817.68 1481.94,1853.99 1973.33,3110.05 498.63,1249.36 744.61,2731.32 744.61,4445.86 0,1701.16 -245.98,3203.19 -744.61,4518.95 -491.39,1309.6 -1149.53,2412.29 -1973.33,3309.72 -824.36,890.73 -1781.49,1575.1 -2871.33,2033.57 -1089.86,458.48 -2232.69,691.06 -3429.08,691.06 -1195.83,0 -2332.53,-219.2 -3422.39,-651.45 -1096.53,-438.39 -2053.66,-1083.16 -2877.46,-1940.44 -823.8,-857.26 -1481.96,-1927.04 -1973.9,-3209.88 -491.39,-1288.98 -737.35,-2777.63 -737.35,-4478.78zm11968.31 -193c0,-1043 -32.9,-2040.26 -105.97,-3010.2 -66.38,-963.81 -206.37,-1827.78 -418.87,-2578.51 -205.81,-751.3 -504.77,-1355.91 -890.18,-1800.99 -392.1,-451.79 -904.12,-670.99 -1542.2,-670.99 -638.08,0 -1149.53,232.58 -1534.94,710.59 -392.1,471.85 -691.06,1096.53 -897.43,1867.35 -205.81,771.38 -345.25,1654.87 -411.62,2638.75 -60.24,983.33 -93.15,2000.11 -93.15,3036.99 0,1036.3 32.91,2053.09 93.15,3043.66 66.36,996.73 205.81,1880.76 411.62,2658.27 206.37,784.21 505.34,1408.89 897.43,1880.76 385.41,471.85 896.87,710.58 1534.94,710.58 638.08,0 1150.1,-245.41 1542.2,-737.35 385.41,-498.65 684.37,-1142.85 890.18,-1947.12 212.5,-804.3 352.49,-1714.54 418.87,-2724.65 73.07,-1016.78 105.97,-2040.26 105.97,-3077.14zm15717.01 8446.66c0,172.91 -33.46,372.03 -93.15,604.61 -52.98,232.58 -192.98,451.77 -405.48,664.83 -212.51,205.83 -524.85,385.41 -937.04,531.54 -405.49,152.83 -957.1,225.89 -1641.47,225.89 -691.06,0 -1229.29,-79.76 -1621.39,-245.96 -385.43,-159.53 -677.68,-351.94 -863.97,-571.71 -186.29,-219.19 -305.65,-451.77 -352.51,-684.35 -39.59,-232.58 -66.36,-418.32 -66.36,-565.01l0 -25113.52c0,-378.72 -86.46,-704.44 -258.81,-983.31 -179.6,-278.89 -471.85,-418.89 -890.73,-418.89 -219.2,0 -412.18,33.48 -571.7,106.53 -165.66,73.07 -331.88,179.6 -518.17,319.05l-385.41 -465.17c298.96,-245.98 624.68,-485.25 990.02,-731.23 365.89,-239.27 764.13,-451.77 1196.38,-631.37 438.41,-179.05 896.88,-331.88 1395.51,-445.1 491.94,-119.36 1010.09,-179.6 1555.03,-179.6 843.88,0 1502.03,113.22 1967.19,345.82 465.18,225.88 810.99,504.77 1030.17,837.18 219.2,325.74 351.94,677.68 398.8,1050.26 46.29,372.03 73.07,697.75 73.07,983.33l0 25366.17zm21923.71 -1674.94c0,119.91 6.69,245.96 19.52,379.27 13.38,139.45 46.84,265.5 93.14,392.11 53.55,126.05 133.31,225.88 232.6,298.94 106.51,79.76 259.34,119.36 451.77,119.36 245.98,0 465.73,-86.45 658.16,-265.5 199.67,-172.89 378.72,-352.49 551.61,-532.09l465.17 405.49c-192.41,272.74 -438.39,578.39 -731.21,910.81 -292.25,325.17 -644.2,644.22 -1063.09,943.16 -412.18,299.53 -884.04,544.94 -1422.27,744.61 -531.54,205.81 -1129.45,305.65 -1807.7,305.65 -571.13,0 -1069.76,-73.07 -1488.65,-225.89 -424.99,-146.14 -777.51,-352.49 -1069.78,-604.59 -292.25,-252.67 -511.46,-551.63 -650.89,-890.74 -146.7,-345.8 -219.75,-711.14 -219.75,-1103.24l0 -877.35c-644.22,704.44 -1329.13,1316.3 -2039.71,1854.54 -312.36,232.58 -644.78,458.48 -997.28,677.66 -345.25,219.2 -711.14,418.89 -1089.86,591.23 -372.01,179.6 -764.13,319.03 -1169.6,418.87 -398.8,106.53 -803.73,159.51 -1202.52,159.51 -777.52,0 -1442.37,-139.43 -1993.98,-418.87 -551.63,-278.88 -996.71,-644.22 -1335.82,-1102.69 -338.57,-452.34 -584.53,-963.79 -737.35,-1535.49 -159.51,-571.7 -239.29,-1142.85 -239.29,-1714.54l0 -12048.09c0,-119.91 -6.69,-245.96 -20.07,-385.96 -6.69,-132.76 -39.6,-265.5 -93.15,-385.41 -52.98,-126.07 -132.74,-225.89 -232.58,-298.96 -105.97,-79.76 -252.1,-119.36 -451.79,-119.36 -232.58,0 -451.77,86.45 -651.45,258.79 -199.12,179.6 -378.72,359.2 -531.54,538.8l-491.37 -405.49c199.12,-279.43 438.39,-578.39 730.66,-910.81 292.25,-331.86 644.76,-644.2 1063.64,-943.16 411.62,-299.53 890.18,-544.94 1428.41,-751.3 538.23,-199.12 1143.39,-298.96 1800.99,-298.96 571.7,0 1069.78,73.07 1502.04,225.89 425.01,146.14 784.19,345.8 1069.78,597.91 286.13,259.36 498.63,551.63 644.76,897.43 139.43,345.8 212.5,711.14 212.5,1103.24l0 13005.19c0,179.6 26.77,365.32 86.45,551.63 59.69,192.98 139.45,358.63 252.67,518.15 112.67,152.83 252.67,279.44 418.32,379.27 166.2,99.29 372.58,146.14 605.16,146.14 378.72,0 750.75,-99.84 1129.45,-292.82 372.03,-192.43 717.83,-425.01 1030.19,-691.06 312.34,-265.5 578.39,-531.54 810.97,-790.9 225.89,-258.79 392.1,-451.79 491.39,-577.84l0 -11370.41c0,-119.91 -6.71,-245.96 -19.54,-385.96 -6.69,-132.76 -40.15,-265.5 -93.14,-385.41 -53.55,-126.07 -132.74,-225.89 -232.58,-298.96 -106.53,-79.76 -252.67,-119.36 -451.79,-119.36 -232.58,0 -452.34,86.45 -651.45,258.79 -199.68,179.6 -378.72,359.2 -531.54,538.8l-491.94 -405.49c199.12,-279.43 438.39,-578.39 731.21,-910.81 292.27,-331.86 644.22,-644.2 1063.09,-943.16 412.18,-299.53 890.74,-544.94 1428.98,-751.3 538.23,-199.12 1142.83,-298.96 1800.99,-298.96 571.13,0 1069.78,73.07 1501.48,225.89 425.56,146.14 784.19,345.8 1070.33,597.91 285.58,259.36 498.08,551.63 644.22,897.43 140,345.8 213.06,711.14 213.06,1103.24l0 13995.21zm11423.39 -15144.75l0 14387.31c0,684.37 132.74,1162.93 392.1,1428.98 259.36,265.48 617.99,398.79 1069.78,398.79 352.51,0 664.85,-93.14 937.04,-292.82 272.74,-192.43 505.32,-411.62 697.75,-657.59 232.58,-272.74 438.96,-591.78 605.16,-957.1l604.61 272.74c-192.98,418.32 -425.56,870.66 -691.06,1362.05 -266.05,498.63 -617.99,950.42 -1063.64,1375.98 -438.41,418.32 -996.71,777.52 -1660.99,1063.09 -671.54,278.88 -1508.73,425.56 -2525.53,425.56 -571.7,0 -1116.62,-86.45 -1641.47,-252.65 -524.85,-166.22 -996.71,-438.96 -1402.2,-797.59 -412.18,-365.34 -737.9,-817.68 -983.31,-1362.6 -245.98,-544.94 -372.58,-1202.53 -372.58,-1966.66l0 -14427.46 -2179.72 0 0 -1402.75c365.89,0 870.66,-92.59 1522.13,-278.88 644.76,-192.43 1309.05,-504.77 1993.42,-950.42 678.23,-438.41 1315.74,-1030.17 1900.83,-1767.52 577.84,-744.61 996.71,-1654.87 1242.67,-2744.71l1555.03 0 0 5741.53 3176.42 0c1036.88,0 1555.03,-172.34 1555.03,-524.85 0,-132.74 -59.69,-219.19 -192.43,-265.48 -126.62,-40.17 -272.74,-99.84 -438.96,-172.91 -158.95,-73.07 -305.65,-172.91 -438.39,-298.96 -126.05,-133.31 -192.43,-345.8 -192.43,-644.76 0,-365.32 112.67,-651.45 338.57,-857.26 225.89,-205.83 524.84,-312.36 890.73,-312.36 232.58,0 431.7,46.29 611.3,146.14 172.91,99.84 319.05,225.89 438.41,392.11 113.22,159.51 199.67,345.8 259.36,551.61 59.67,205.81 86.45,418.87 86.45,624.68 0,843.88 -239.27,1515.42 -724.52,2013.5 -491.94,498.63 -1269.46,751.3 -2345.93,751.3l-3023.59 0zm13729.71 16779.53c0,172.89 -32.91,372.58 -86.45,618.54 -59.69,238.72 -199.12,465.18 -411.63,677.68 -213.06,212.5 -518.71,398.79 -924.19,544.92 -404.94,152.83 -949.87,225.89 -1634.78,225.89 -691.06,0 -1229.29,-79.76 -1614.7,-245.96 -392.11,-159.53 -684.37,-351.94 -877.36,-571.71 -192.41,-219.19 -319.03,-451.77 -358.63,-684.35 -46.29,-232.58 -73.07,-418.32 -73.07,-565.01l0 -15025.39c0,-378.72 -86.45,-704.45 -259.36,-983.33 -179.58,-279.43 -471.85,-418.87 -884.04,-418.87 -225.89,0 -411.62,33.46 -564.44,113.22 -159.53,79.76 -325.74,192.43 -512.02,331.88l-405.49 -484.7c299.51,-245.96 631.39,-491.94 1003.96,-731.21 365.32,-239.27 770.82,-451.79 1195.83,-631.39 425.56,-186.29 890.74,-332.41 1382.68,-451.77 491.37,-113.24 1010.09,-172.91 1555.01,-172.91 843.88,0 1501.48,113.22 1966.66,339.11 471.85,225.89 810.97,504.77 1030.17,837.19 225.89,332.43 359.18,684.37 405.48,1063.09 40.17,372.58 66.38,704.44 66.38,990.57l0 15224.5zm-6578.73 -22893.64c0,-365.34 79.19,-711.14 238.72,-1043.57 166.2,-331.86 392.1,-617.99 684.92,-863.97 292.27,-245.96 624.68,-445.08 1010.09,-584.53 385.43,-139.43 803.73,-212.5 1256.07,-212.5 438.41,0 850.59,73.07 1236,212.5 385.41,139.45 717.83,338.57 1003.4,584.53 285.57,245.98 511.46,532.11 670.97,863.97 159.53,332.43 245.98,678.23 245.98,1043.57 0,378.7 -86.45,724.52 -245.98,1049.69 -159.51,325.74 -385.41,605.16 -670.97,851.14 -285.57,238.71 -617.99,431.7 -1003.4,571.13 -385.41,146.14 -797.59,212.51 -1236,212.51 -452.34,0 -870.64,-66.38 -1256.07,-212.51 -385.41,-139.43 -717.82,-332.43 -1010.09,-571.13 -292.82,-245.98 -518.71,-525.4 -684.92,-851.14 -159.53,-325.17 -238.72,-670.99 -238.72,-1049.69zm10240.96 14680.13c0,-1701.16 245.96,-3189.81 737.35,-4465.96 491.94,-1282.82 1150.08,-2345.91 1973.9,-3203.19 823.8,-857.26 1780.9,-1502.03 2877.46,-1927.04 1089.85,-432.27 2226.57,-644.76 3422.39,-644.76 1196.38,0 2339.22,199.12 3429.07,591.22 1089.86,398.8 2046.97,1003.96 2871.33,1821.07 823.82,817.68 1481.96,1853.99 1973.35,3110.05 498.63,1249.36 744.59,2731.32 744.59,4445.86 0,1701.16 -245.96,3203.19 -744.59,4518.95 -491.39,1309.6 -1149.53,2412.29 -1973.35,3309.72 -824.36,890.73 -1781.47,1575.1 -2871.33,2033.57 -1089.85,458.48 -2232.69,691.06 -3429.07,691.06 -1195.83,0 -2332.55,-219.2 -3422.39,-651.45 -1096.55,-438.39 -2053.66,-1083.16 -2877.46,-1940.44 -823.82,-857.26 -1481.96,-1927.04 -1973.9,-3209.88 -491.39,-1288.98 -737.35,-2777.63 -737.35,-4478.78zm11968.31 -193c0,-1043 -32.9,-2040.26 -105.97,-3010.2 -66.38,-963.81 -206.37,-1827.78 -418.89,-2578.51 -205.81,-751.3 -504.77,-1355.91 -890.18,-1800.99 -392.1,-451.79 -904.12,-670.99 -1542.18,-670.99 -638.08,0 -1149.53,232.58 -1534.96,710.59 -392.1,471.85 -691.06,1096.53 -897.42,1867.35 -205.83,771.38 -345.25,1654.87 -411.63,2638.75 -60.24,983.33 -93.14,2000.11 -93.14,3036.99 0,1036.3 32.9,2053.09 93.14,3043.66 66.38,996.73 205.81,1880.76 411.63,2658.27 206.36,784.21 505.32,1408.89 897.42,1880.76 385.43,471.85 896.88,710.58 1534.96,710.58 638.06,0 1150.08,-245.41 1542.18,-737.35 385.41,-498.65 684.37,-1142.85 890.18,-1947.12 212.51,-804.3 352.51,-1714.54 418.89,-2724.65 73.07,-1016.78 105.97,-2040.26 105.97,-3077.14zm21146.2 465.18c0,-1634.78 -73.07,-2943.85 -225.89,-3920.47 -146.14,-983.88 -345.82,-1727.92 -591.23,-2239.95 -245.96,-511.46 -518.7,-850.57 -817.66,-1016.79 -298.96,-159.51 -604.61,-239.27 -916.95,-239.27 -378.72,0 -711.14,99.84 -1003.4,298.96 -292.82,199.67 -544.94,432.25 -758,691.61 -212.5,258.81 -398.79,518.17 -544.92,777.52 -152.83,258.79 -278.88,458.48 -378.72,584.53l0 13005.19c0,172.89 -26.21,372.58 -79.76,618.54 -52.98,238.72 -179.03,465.18 -378.72,677.68 -199.12,212.5 -498.63,398.79 -896.87,544.92 -392.1,152.83 -937.04,225.89 -1621.95,225.89 -691.06,0 -1229.29,-79.76 -1628.1,-245.96 -398.79,-159.53 -697.75,-351.94 -903.56,-571.71 -212.5,-219.19 -339.11,-451.77 -392.1,-684.35 -53,-232.58 -79.76,-418.32 -79.76,-565.01l0 -15025.39c0,-378.72 -86.46,-704.45 -259.36,-983.33 -179.6,-279.43 -471.87,-418.87 -884.05,-418.87 -225.89,0 -411.62,33.46 -564.44,113.22 -159.51,79.76 -325.74,192.43 -512.02,331.88l-405.49 -484.7c299.53,-245.96 631.39,-491.94 1003.96,-731.21 365.34,-239.27 770.82,-451.79 1195.83,-631.39 425.58,-186.29 890.74,-332.41 1382.68,-451.77 491.37,-113.24 1010.09,-172.91 1555.03,-172.91 843.88,0 1501.48,139.45 1966.64,418.87 471.85,278.88 810.97,611.3 1030.17,1003.4 225.89,385.41 359.2,790.9 405.49,1215.91 40.15,418.87 66.36,777.51 66.36,1063.64 478.56,-691.61 1023.48,-1309.6 1634.78,-1854.54 245.98,-232.58 525.4,-458.48 824.36,-677.66 305.65,-219.2 631.39,-418.89 976.62,-597.92 345.82,-172.91 704.45,-312.34 1089.86,-418.87 385.41,-99.84 777.51,-152.83 1176.31,-152.83 884.04,0 1668.25,166.2 2345.91,505.32 684.37,338.57 1256.07,903.57 1727.94,1694.47 465.17,790.9 823.8,1840.59 1069.78,3143.5 245.96,1302.36 365.89,2923.77 365.89,4857.49 0,1880.76 -166.22,3515.55 -505.34,4904.35 -339.11,1389.37 -777.51,2571.8 -1322.44,3548.99 -544.92,969.93 -1162.91,1767.52 -1847.28,2378.83 -691.61,618.56 -1382.67,1103.24 -2087.12,1455.75 -697.75,345.25 -1368.74,591.22 -2013.5,730.66 -644.76,133.31 -1196.38,206.36 -1667.68,219.75l-213.06 -797.59c392.1,-93.15 751.3,-232.58 1083.16,-425.58 332.43,-199.12 631.39,-485.23 904.12,-857.26 272.19,-378.72 511.48,-857.28 717.83,-1435.1 212.51,-571.71 392.11,-1296.24 538.23,-2166.89 146.14,-870.09 258.81,-1900.27 331.88,-3083.26 66.93,-1189.7 106.53,-2578.51 106.53,-4160.3z"/>
   <path class="fil2" d="M285989.54 16651.63c-298.94,0 -585.08,40.15 -850.57,119.91 -266.05,79.76 -498.63,205.81 -711.14,378.72 -206.36,172.34 -365.89,398.8 -485.25,664.28 -119.91,266.05 -172.89,578.4 -172.89,943.73 0,505.32 179.6,1010.09 551.61,1508.73 372.03,498.06 830.51,1016.78 1382.12,1555.01 551.63,538.25 1150.1,1096.55 1794.3,1674.39 638.08,578.39 1236.55,1189.69 1787.61,1827.76 551.63,644.76 1016.79,1329.13 1382.68,2060.35 372.03,723.97 558.32,1501.48 558.32,2332.55 0,937.02 -159.53,1767.52 -478.56,2492.05 -319.03,730.66 -770.82,1341.96 -1362.6,1847.28 -591.22,511.46 -1302.36,897.43 -2139.55,1162.93 -837.74,266.05 -1768.07,398.79 -2798.26,398.79 -896.87,0 -1707.84,-126.05 -2431.81,-378.72 -724.52,-252.65 -1375.98,-565.01 -1934.29,-937.02 -564.44,-372.03 -1049.69,-764.13 -1455.18,-1176.31 -398.8,-418.87 -711.14,-790.9 -930.33,-1130.02l677.66 -484.68c172.91,192.41 385.41,404.93 644.76,631.37 259.36,225.89 544.94,438.41 863.97,630.82 319.03,193 658.14,352.51 1023.48,478.56 365.32,119.91 730.66,186.29 1109.93,186.29 937.04,0 1701.16,-225.89 2299.07,-670.97 597.92,-452.35 897.43,-1116.64 897.43,-2000.67 0,-491.94 -166.22,-1003.4 -491.94,-1528.25 -325.74,-525.4 -731.23,-1063.64 -1222.6,-1621.39 -498.63,-558.32 -1030.17,-1136.72 -1601.87,-1734.63 -571.7,-598.47 -1103.24,-1216.46 -1594.63,-1847.85 -491.94,-637.51 -904.12,-1295.67 -1223.15,-1966.64 -325.74,-678.23 -491.39,-1375.98 -491.39,-2106.64 0,-817.68 165.66,-1528.82 498.08,-2140.12 332.43,-611.3 770.82,-1116.62 1322.44,-1515.42 551.61,-404.93 1183,-703.89 1894.12,-910.25 704.45,-199.12 1435.67,-298.96 2186.41,-298.96 870.66,0 1661.54,79.76 2378.83,232.58 711.14,159.51 1322.44,392.1 1834.45,711.14 511.46,319.03 910.26,717.83 1189.7,1196.38 278.88,477.99 418.31,1036.31 418.31,1674.39 0,491.94 -159.51,923.64 -484.68,1289.53 -325.74,358.63 -777.51,544.92 -1362.6,544.92 -558.32,0 -983.33,-119.91 -1276.15,-365.89 -292.25,-239.27 -438.39,-564.44 -438.39,-983.31 0,-272.75 66.38,-485.25 205.81,-638.08 133.31,-159.51 286.13,-285.57 458.48,-378.72 166.22,-99.84 319.05,-186.29 452.34,-252.67 139.45,-73.07 205.83,-166.2 205.83,-285.57 0,-365.32 -192.43,-651.45 -584.53,-863.97 -385.97,-219.19 -890.74,-325.72 -1495.36,-325.72z"/>
  </g>
  <path class="fil3" d="M59374.48 60850.33l2002.42 -15.42 2424.5 -8228.19 2283.63 8228.19 2017.84 0 3222.4 -10871.69 -1908.34 0 -2268.23 8807.08 -2267.68 -8807.08 -2002.42 0 -2440.45 8853.85 -2252.28 -8853.85 -1892.92 0 3081.53 10887.11zm20319.86 -15.42l1783.42 0 0 -10871.69 -1783.42 0 0 4661.34 -5114.79 0 0 -4661.34 -1783.42 0 0 10871.69 1783.42 0 0 -4755.44 5114.79 0 0 4755.44zm10136.54 -10887.11l-6006.75 0 0 10887.11 6006.75 0 0 -1454.91 -4223.33 0 0 -3331.88 3753.95 0 0 -1454.38 -3753.95 0 0 -3191.03 4223.33 0 0 -1454.91zm7962.42 3269.16c0,1079.62 -625.67,1845.62 -2017.86,1845.62l-1971.07 0 0 -3644.45 1971.07 0c1392.19,0 2017.86,703.8 2017.86,1798.83zm-5772.34 -3253.74l0 10871.69 1783.41 0 0 -4348.78 1360.83 0 2502.65 4348.78 2127.34 0 -2690.29 -4505.07c1830.22,-453.43 2518.6,-1830.2 2518.6,-3112.88 0,-1767.47 -1267.27,-3253.74 -3848.06,-3253.74l-3754.48 0zm15892.92 -15.42l-6006.75 0 0 10887.11 6006.75 0 0 -1454.91 -4223.33 0 0 -3331.88 3753.96 0 0 -1454.38 -3753.96 0 0 -3191.03 4223.33 0 0 -1454.91zm9808.04 15.42l-3550.9 0 0 10871.69 3550.9 0c3488.17,0 5772.34,-2049.2 5772.34,-5396.52 0,-3363.25 -2284.16,-5475.18 -5772.34,-5475.18zm-1767.47 9416.78l0 -7961.87 1767.47 0c2565.36,0 3942.14,1533.06 3942.14,4020.27 0,2471.28 -1376.78,3941.61 -3942.14,3941.61l-1767.47 0zm15079.62 -6163.04c0,1079.62 -625.66,1845.62 -2017.84,1845.62l-1971.07 0 0 -3644.45 1971.07 0c1392.19,0 2017.84,703.8 2017.84,1798.83zm-5772.34 -3253.74l0 10871.69 1783.42 0 0 -4348.78 1360.81 0 2502.65 4348.78 2127.36 0 -2690.29 -4505.07c1830.2,-453.43 2518.58,-1830.2 2518.58,-3112.88 0,-1767.47 -1267.27,-3253.74 -3848.04,-3253.74l-3754.49 0zm15892.94 -15.42l-6006.77 0 0 10887.11 6006.77 0 0 -1454.91 -4223.35 0 0 -3331.88 3753.96 0 0 -1454.38 -3753.96 0 0 -3191.03 4223.35 0 0 -1454.91zm9526.3 10887.11l1877.5 0 -3895.36 -10887.11 -2064.62 0 -3894.83 10887.11 1861.04 0 782.48 -2221.44 4551.84 0 781.95 2221.44zm-1282.69 -3675.82l-3550.9 0 1783.42 -5052.58 1767.47 5052.58zm4849.52 3675.82l1783.42 0 0 -7445.71 3331.9 7445.71 1235.36 0 3316.48 -7445.71 0 7445.71 1783.42 0 0 -10871.69 -1908.88 0 -3800.74 8525.34 -3816.69 -8525.34 -1924.3 0 0 10871.69zm21133.18 -3081.51c0,-3973.49 -5756.4,-2440.45 -5756.4,-4896.31 0,-1047.72 797.9,-1548.48 1830.2,-1517.1 1126.41,31.35 1767.49,703.8 1830.22,1438.96l1971.07 0c-156.29,-1861.55 -1627.15,-2956.59 -3707.19,-2956.59 -2221.44,0 -3738.54,1189.12 -3738.54,3097.47 0,4004.33 5771.8,2299.58 5771.8,4927.13 0,923.35 -703.8,1595.78 -1955.12,1595.78 -1235.91,0 -1861.57,-719.74 -1939.71,-1611.18l-1908.34 0c0,1924.28 1673.39,3112.88 3848.06,3112.88 2424.5,0 3753.96,-1564.43 3753.96,-3191.03zm6178.98 3081.51l1783.42 0 0 -7445.71 3331.9 7445.71 1235.36 0 3316.48 -7445.71 0 7445.71 1783.42 0 0 -10871.69 -1908.88 0 -3800.74 8525.34 -3816.69 -8525.34 -1924.3 0 0 10871.69zm19803.71 -10887.11l-6006.75 0 0 10887.11 6006.75 0 0 -1454.91 -4223.33 0 0 -3331.88 3753.96 0 0 -1454.38 -3753.96 0 0 -3191.03 4223.33 0 0 -1454.91zm8196.84 0l-6006.75 0 0 10887.11 6006.75 0 0 -1454.91 -4223.33 0 0 -3331.88 3753.96 0 0 -1454.38 -3753.96 0 0 -3191.03 4223.33 0 0 -1454.91zm1627.15 1470.33l2909.29 0 0 9416.78 1783.42 0 0 -9416.78 2893.87 0 0 -1454.91 -7586.58 0 0 1454.91zm19224.82 1798.83c0,1079.62 -625.66,1845.62 -2017.84,1845.62l-1971.07 0 0 -3644.45 1971.07 0c1392.19,0 2017.84,703.8 2017.84,1798.83zm-5772.34 -3253.74l0 10871.69 1783.42 0 0 -4348.78 1360.81 0 2502.65 4348.78 2127.34 0 -2690.27 -4505.07c1830.2,-453.43 2518.58,-1830.2 2518.58,-3112.88 0,-1767.47 -1267.27,-3253.74 -3848.04,-3253.74l-3754.49 0zm15892.92 -15.42l-6006.75 0 0 10887.11 6006.75 0 0 -1454.91 -4223.33 0 0 -3331.88 3753.96 0 0 -1454.38 -3753.96 0 0 -3191.03 4223.33 0 0 -1454.91zm9526.3 10887.11l1877.52 0 -3895.36 -10887.11 -2064.62 0 -3894.83 10887.11 1861.04 0 782.46 -2221.44 4551.86 0 781.93 2221.44zm-1282.67 -3675.82l-3550.9 0 1783.41 -5052.58 1767.49 5052.58zm4849.52 -7195.88l0 10871.69 5459.24 0 0 -1438.96 -3675.82 0 0 -9432.73 -1783.42 0zm6945.52 10871.69l1783.42 0 0 -10871.69 -1783.42 0 0 10871.69zm3566.85 -9416.78l2909.29 0 0 9416.78 1783.42 0 0 -9416.78 2893.87 0 0 -1454.91 -7586.58 0 0 1454.91zm12060.3 5474.64l0 3942.14 1783.42 0 0 -3942.14 3597.67 -6929.56 -1971.07 0 -2518.58 5334.32 -2518.07 -5334.32 -1987 0 3613.62 6929.56z"/>
 </g>
</svg>
